<?xml version="1.0" encoding="UTF-8" standalone="no"?>
<!-- Created with Inkscape (http://www.inkscape.org/) -->

<svg
   width="138.8325mm"
   height="135.63348mm"
   viewBox="0 0 138.83251 135.63348"
   version="1.1"
   id="svg5"
   xml:space="preserve"
   inkscape:export-filename="Github.png"
   inkscape:export-xdpi="96"
   inkscape:export-ydpi="96"
   inkscape:version="1.2.2 (b0a8486541, 2022-12-01)"
   sodipodi:docname="github.svg"
   xmlns:inkscape="http://www.inkscape.org/namespaces/inkscape"
   xmlns:sodipodi="http://sodipodi.sourceforge.net/DTD/sodipodi-0.dtd"
   xmlns="http://www.w3.org/2000/svg"
   xmlns:svg="http://www.w3.org/2000/svg"><sodipodi:namedview
     id="namedview7"
     pagecolor="#ffffff"
     bordercolor="#000000"
     borderopacity="0.25"
     inkscape:showpageshadow="2"
     inkscape:pageopacity="0.0"
     inkscape:pagecheckerboard="0"
     inkscape:deskcolor="#d1d1d1"
     inkscape:document-units="mm"
     showgrid="false"
     inkscape:zoom="0.69578215"
     inkscape:cx="173.18639"
     inkscape:cy="411.0482"
     inkscape:window-width="1366"
     inkscape:window-height="768"
     inkscape:window-x="0"
     inkscape:window-y="0"
     inkscape:window-maximized="1"
     inkscape:current-layer="layer1" /><defs
     id="defs2" /><g
     inkscape:label="Layer 1"
     inkscape:groupmode="layer"
     id="layer1"><path
       style="fill:#e8c388;fill-opacity:1;stroke-width:0.264583"
       d="m 48.323188,133.81221 c -0.363802,-0.071 -2.030677,-0.66694 -3.704167,-1.32439 -1.673489,-0.65744 -4.454854,-1.91253 -6.180814,-2.78908 -1.72596,-0.87655 -4.40486,-2.42551 -5.95312,-3.44214 -1.54827,-1.01662 -3.94612,-2.75193 -5.32857,-3.85624 -1.38244,-1.1043 -3.76718,-3.26269 -5.29942,-4.7964 -1.53223,-1.53371 -3.76214,-3.99862 -4.95534,-5.47758 -1.1932,-1.47895 -3.13186,-4.15786 -4.30814,-5.95312 -1.17627,-1.79527 -2.9598003,-4.93099 -3.9634003,-6.968287 -1.0036,-2.0373 -2.22986,-4.83526 -2.72503,-6.21771 -0.49517,-1.38245 -1.20443,-3.58511 -1.57614,-4.89479 -0.3717,-1.30969 -0.92164,-3.63141 -1.22207,-5.15938 -0.30043,-1.52797 -0.6906,-3.90922 -0.86702,-5.29167 -0.17643,-1.38244 -0.32296,-5.07338 -0.32562,-8.20208 -0.003,-3.1287 0.1438,-6.81963 0.32545,-8.20208 0.18166,-1.38245 0.6314,-3.98312 0.99943,-5.779282 0.36803,-1.79616 1.00496,-4.356 1.41541,-5.68854 0.41044,-1.33255 1.18281,-3.5539 1.71636,-4.93635 0.53355,-1.38245 1.66005,-3.88727 2.50333,-5.56628 0.84327,-1.679 2.2801003,-4.23884 3.1929403,-5.68854 0.91285,-1.44969 2.46663,-3.70737 3.45286,-5.01705 0.98623,-1.30969 2.72795,-3.39943 3.8705,-4.64386 1.14255,-1.24443 2.9108,-3.03278 3.92945,-3.9741 1.01864,-0.94133 2.50692,-2.25047 3.30729,-2.9092 0.80036,-0.65873 2.28864,-1.79407 3.30729,-2.52298 1.01865,-0.72891 2.93737,-1.99411 4.26384,-2.81155 1.32646,-0.81744 3.64442,-2.1048404 5.15102,-2.8608904 1.50659,-0.75604 4.07994,-1.89884 5.718544,-2.53954 1.638601,-0.64071 4.4602,-1.5708 6.270215,-2.06687 1.810014,-0.49607 4.759348,-1.14767 6.554075,-1.44799 1.794727,-0.30033 5.138372,-0.66305 7.430325,-0.8060601 2.729217,-0.17028 5.605158,-0.17028 8.334375,0 2.291953,0.1430101 5.635598,0.5057301 7.430325,0.8060601 1.794727,0.30032 4.744061,0.95192 6.554071,1.44799 1.81002,0.49607 4.631615,1.42616 6.270215,2.06687 1.6386,0.6407 4.21194,1.7835 5.71854,2.53954 1.506608,0.75605 3.824568,2.0434504 5.151028,2.8608904 1.32647,0.81744 3.24519,2.08264 4.26384,2.81155 1.01864,0.72891 2.50693,1.86229 3.30729,2.51862 0.80036,0.65634 2.28231,1.97162 3.29322,2.92285 1.01091,0.95122 2.77866,2.73829 3.92834,3.97125 1.14967,1.23296 2.89773,3.31656 3.88457,4.63021 0.98683,1.31365 2.52051,3.54186 3.40817,4.95157 0.88766,1.40972 2.3387,4.0077 3.22455,5.7733 0.88584,1.7656 2.03294,4.30314 2.54912,5.63897 0.51617,1.33583 1.27431,3.51904 1.68476,4.85159 0.41045,1.33254 1.04738,3.89238 1.41541,5.68854 0.36803,1.796162 0.81814,4.396832 1.00026,5.779282 0.18211,1.38245 0.32691,5.07338 0.32176,8.20208 -0.005,3.1287 -0.15204,6.81964 -0.32644,8.20208 -0.1744,1.38245 -0.56291,3.7637 -0.86334,5.29167 -0.30044,1.52797 -0.85037,3.84969 -1.22208,5.15938 -0.3717,1.30968 -1.08324,3.51234 -1.58118,4.89479 -0.49795,1.38245 -1.72382,4.18041 -2.72417,6.21771 -1.00033,2.037297 -2.78159,5.173017 -3.95834,6.968287 -1.17676,1.79526 -3.11581,4.47417 -4.30901,5.95312 -1.19321,1.47896 -3.42311,3.94387 -4.95534,5.47758 -1.53224,1.53371 -3.91698,3.68921 -5.29943,4.78999 -1.38244,1.10078 -3.61232,2.73454 -4.95526,3.63059 -1.34295,0.89604 -4.02186,2.45038 -5.95314,3.45409 -1.931268,1.00371 -4.940148,2.38684 -6.686388,3.07363 -2.26715,0.89166 -3.57316,1.2555 -4.567445,1.27245 -1.23233,0.021 -1.49092,-0.0747 -2.24896,-0.83229 l -0.856509,-0.85604 -0.160311,-11.96779 c -0.130644,-9.75298 -0.238925,-12.26814 -0.585089,-13.59076 -0.233628,-0.89265 -0.709285,-2.26186 -1.057016,-3.04271 -0.347731,-0.78085 -1.119016,-2.03216 -1.713963,-2.7807 l -1.081725,-1.360977 2.16676,-0.30327 c 1.191718,-0.1668 3.059729,-0.4867 4.151133,-0.71088 1.09141,-0.22419 3.071125,-0.76016 4.399375,-1.19106 1.32826,-0.4309 3.41185,-1.28579 4.63021,-1.89976 1.21836,-0.61397 2.927248,-1.59127 3.797538,-2.17178 0.87028,-0.58051 2.31085,-1.73695 3.20126,-2.56986 0.89042,-0.83291 2.18084,-2.35189 2.86762,-3.37551 0.68677,-1.02361 1.64562,-2.72339 2.13077,-3.77728 0.48515,-1.05389 1.18854,-2.92819 1.56309,-4.16512 0.37455,-1.23692 0.87052,-3.20145 1.10217,-4.36562 0.23164,-1.16417 0.48759,-4.20026 0.56877,-6.74687 0.0943,-2.95823 0.0364,-5.34072 -0.16041,-6.59781 -0.1694,-1.08219 -0.68016,-3.0899 -1.135,-4.46158 -0.45484,-1.371702 -1.39055,-3.431662 -2.07933,-4.577702 -0.68879,-1.14604 -1.73045,-2.65474 -2.31479,-3.35267 l -1.06244,-1.26897 0.6504,-2.23991 c 0.51708,-1.78073 0.6532,-2.86365 0.66403,-5.28262 0.008,-1.86975 -0.15489,-3.8403 -0.42351,-5.1117 -0.24042,-1.13795 -0.69848,-2.79779 -1.01792,-3.68854 -0.51545,-1.43733 -0.68153,-1.64552 -1.4762,-1.85038 -0.61453,-0.15842 -1.569,-0.0944 -3.04271,0.20414 -1.181018,0.23924 -3.139828,0.84576 -4.352918,1.34784 -1.21309,0.50208 -3.05273,1.33948 -4.0881,1.86088 -1.03537,0.5214 -2.836285,1.53957 -4.002045,2.2626 -1.506988,0.93466 -2.313626,1.28081 -2.791062,1.19769 -0.369326,-0.0643 -1.878636,-0.37131 -3.354022,-0.68226 -1.475385,-0.31095 -4.213095,-0.7444 -6.083797,-0.96323 -1.870702,-0.21883 -5.010078,-0.39787 -6.976393,-0.39787 -1.966314,0 -5.10569,0.17904 -6.976392,0.39787 -1.870702,0.21883 -4.608412,0.65228 -6.083797,0.96323 -1.475386,0.31095 -2.991795,0.61901 -3.3698,0.68458 -0.495435,0.0859 -1.21127,-0.21666 -2.564458,-1.08403 -1.032446,-0.66178 -2.604635,-1.57046 -3.493751,-2.01928 -0.889116,-0.44883 -2.949649,-1.36204 -4.578958,-2.02936 -1.62932,-0.66732 -3.84395,-1.3664 -4.92141,-1.5535 -1.07746,-0.18711 -2.3585,-0.27536 -2.84676,-0.19613 -0.85265,0.13836 -0.91374,0.22927 -1.54521,2.29956 -0.36161,1.18552 -0.79797,2.86643 -0.9697,3.73534 -0.17173,0.86892 -0.30378,2.94906 -0.29345,4.62255 0.0151,2.43859 0.15042,3.48582 0.68176,5.27447 l 0.66296,2.23176 -1.01844,1.20782 c -0.56014,0.66431 -1.60074,2.17668 -2.31243,3.36083 -0.71169,1.18415 -1.66613,3.27529 -2.12097,4.646992 -0.45484,1.37168 -0.9656,3.37939 -1.135,4.46158 -0.1968,1.25709 -0.25472,3.63958 -0.16041,6.59781 0.0812,2.54661 0.33778,5.58147 0.57021,6.74412 0.23244,1.16266 0.67107,2.94859 0.97474,3.96875 0.30367,1.02016 0.99055,2.87204 1.52639,4.11531 0.53584,1.24326 1.54302,3.1082 2.23818,4.14432 0.69516,1.03612 2.00498,2.59545 2.91071,3.46517 0.90573,0.86973 2.5151,2.14303 3.57638,2.82957 1.06127,0.68654 2.90089,1.70181 4.08804,2.25616 1.187141,0.55436 2.932349,1.26755 3.878234,1.58487 0.945886,0.31732 3.08901,0.85288 4.7625,1.19014 1.673489,0.33725 3.723674,0.69088 4.555966,0.78583 l 1.513258,0.17264 -1.030378,1.303527 c -0.566705,0.71694 -1.340093,1.95822 -1.718638,2.75839 -0.378544,0.80018 -0.873873,2.27678 -1.100727,3.28132 -0.402063,1.7804 -0.440251,1.83674 -1.514411,2.23457 -0.606068,0.22446 -1.637726,0.55729 -2.29257,0.73961 -0.655889,0.18262 -2.735418,0.33839 -4.630208,0.34683 -3.396556,0.0151 -3.461986,0.004 -5.230196,-0.88319 -0.98483,-0.49418 -2.43293,-1.51568 -3.218,-2.27001 -0.78506,-0.75432 -2.07423,-2.37405 -2.86481,-3.5994 -0.79058,-1.22534 -2.14623,-2.88404 -3.01256,-3.685957 -0.86633,-0.80193 -2.46233,-1.90482 -3.54666,-2.45087 -1.3431,-0.67636 -2.48603,-1.04458 -3.58565,-1.1552 -0.99152,-0.0998 -1.98657,-0.0395 -2.57969,0.15629 -0.69835,0.23047 -0.96556,0.47057 -0.96556,0.86757 0,0.31962 0.5928,1.11232 1.41916,1.89771 0.78054,0.74184 1.9414,1.709477 2.57969,2.150307 0.63829,0.44083 1.79172,1.63145 2.56319,2.64583 0.77146,1.01438 1.88541,2.85637 2.47545,4.09329 0.59003,1.23693 1.37248,2.88612 1.73878,3.66486 0.3663,0.77875 1.27975,2.0289 2.02989,2.77813 0.75015,0.74922 2.07493,1.73782 2.94397,2.19688 0.86905,0.45906 2.23492,1.02715 3.03529,1.26242 0.80036,0.23527 3.12208,0.56131 5.159373,0.72454 3.026341,0.24247 4.176225,0.22713 6.283854,-0.0838 l 2.579687,-0.38059 0.0652,4.64223 c 0.03586,2.55323 0.06562,5.5352 0.06615,6.6266 5.29e-4,1.09141 -0.15992,2.36553 -0.356537,2.83137 -0.196617,0.46585 -0.625694,1.02274 -0.953505,1.23753 -0.327811,0.21479 -1.000379,0.44602 -1.494597,0.51385 -0.494218,0.0678 -1.196234,0.0652 -1.560036,-0.006 z"
       id="path856" /></g></svg>
