<?xml version="1.0" encoding="UTF-8" standalone="no"?>
<!-- Created with Inkscape (http://www.inkscape.org/) -->

<svg
   width="138.8325mm"
   height="135.63348mm"
   viewBox="0 0 138.83251 135.63348"
   version="1.1"
   id="svg5"
   xml:space="preserve"
   inkscape:export-filename="Github.png"
   inkscape:export-xdpi="96"
   inkscape:export-ydpi="96"
   inkscape:version="1.2.2 (b0a8486541, 2022-12-01)"
   sodipodi:docname="gmail.svg"
   xmlns:inkscape="http://www.inkscape.org/namespaces/inkscape"
   xmlns:sodipodi="http://sodipodi.sourceforge.net/DTD/sodipodi-0.dtd"
   xmlns="http://www.w3.org/2000/svg"
   xmlns:svg="http://www.w3.org/2000/svg"><sodipodi:namedview
     id="namedview7"
     pagecolor="#ffffff"
     bordercolor="#000000"
     borderopacity="0.25"
     inkscape:showpageshadow="2"
     inkscape:pageopacity="0.0"
     inkscape:pagecheckerboard="0"
     inkscape:deskcolor="#d1d1d1"
     inkscape:document-units="mm"
     showgrid="false"
     inkscape:zoom="0.68836679"
     inkscape:cx="45.760488"
     inkscape:cy="230.98151"
     inkscape:window-width="1366"
     inkscape:window-height="768"
     inkscape:window-x="0"
     inkscape:window-y="0"
     inkscape:window-maximized="1"
     inkscape:current-layer="layer1" /><defs
     id="defs2" /><g
     inkscape:label="Layer 1"
     inkscape:groupmode="layer"
     id="layer1"><path
       style="display:inline;fill:#e8c388;fill-opacity:1;stroke-width:0.610537"
       d="M 56.323342,134.18591 C 32.324394,128.92463 13.332544,112.22045 5.7842643,89.734568 3.1898343,82.005911 2.4188842,77.022395 2.4188842,67.980519 2.4188842,49.12851 8.8370943,33.492614 21.963614,20.366094 35.090144,7.2395742 50.726024,0.82136424 69.57804,0.82136424 c 18.852015,0 34.48791,6.41820996 47.61443,19.54472976 13.12652,13.12652 19.54472,28.762416 19.54472,47.614425 0,18.852009 -6.4182,34.487911 -19.54472,47.614421 -9.681,9.681 -20.952645,15.71749 -34.779544,18.62608 -5.490641,1.155 -20.754703,1.13443 -26.089584,-0.0351 z m 49.276418,-31.86822 c 0,-0.25493 -5.630412,-6.088889 -12.512065,-12.964391 l -12.51206,-12.500901 -5.053638,5.027399 c -2.779529,2.765066 -5.466088,5.027394 -5.970194,5.027394 -0.504083,0 -3.241546,-2.337144 -6.083218,-5.193655 L 58.301923,76.519881 45.623835,89.187172 c -6.972941,6.967003 -12.678061,12.875798 -12.678061,13.130638 0,0.25484 16.347149,0.46336 36.327,0.46336 19.979852,0 36.326986,-0.2086 36.326986,-0.46348 z M 39.96862,87.516069 54.613637,72.861507 38.590134,56.837998 22.566644,40.814491 v 29.321147 c 0,25.549794 0.1223,29.495678 0.95041,30.678062 0.52275,0.74631 1.14306,1.35693 1.37848,1.35693 0.23544,0 7.01832,-6.594546 15.073086,-14.654561 z m 74.76514,14.056911 c 0.6142,-0.32871 1.42036,-1.46866 1.79149,-2.533234 0.76949,-2.20743 0.98215,-57.922895 0.22106,-57.922895 -0.24952,0 -7.66749,7.209958 -16.48437,16.022125 l -16.030669,16.022121 14.49533,14.504766 c 7.972429,7.977629 14.584209,14.504767 14.692869,14.504767 0.10869,0 0.70007,-0.26894 1.31427,-0.59765 z M 91.096169,58.978453 C 102.43111,47.647196 111.70516,38.168594 111.70516,37.914896 c 0,-0.253699 -18.957204,-0.461272 -42.12712,-0.461272 -23.169917,0 -42.127116,0.204564 -42.127116,0.454587 0,0.889759 41.221105,41.672526 42.120423,41.672526 0.503715,0 10.189886,-9.271029 21.524822,-20.602284 z"
       id="path300" /></g></svg>
