<?xml version="1.0" encoding="utf-8"?>
<!-- Generator: Adobe Illustrator 19.2.0, SVG Export Plug-In . SVG Version: 6.00 Build 0)  -->
<svg version="1.1" id="Layer_1" xmlns="http://www.w3.org/2000/svg" xmlns:xlink="http://www.w3.org/1999/xlink" x="0px" y="0px"
	 viewBox="0 0 1842.5 1842.5" style="enable-background:new 0 0 1842.5 1842.5;" xml:space="preserve">
<style type="text/css">
	.st0{fill:#3A9DA0;}
	.st1{fill:#21A566;}
	.st2{fill:#EA4B3D;}
	.st3{fill:#FFC61C;}
	.st4{fill:#4587F4;}
	.st5{fill:#FFFFFF;}
</style>
<path class="st0" d="M922.5,44.7L922.5,44.7c484.8,0,877.7,393,877.7,877.7l0,0c0,484.8-393,877.7-877.7,877.7l0,0
	c-484.8,0-877.7-393-877.7-877.7l0,0C44.7,437.7,437.7,44.7,922.5,44.7z"/>
<polygon class="st1" points="866.3,1170.1 1082.2,1224.2 722.6,1224.2 "/>
<path class="st1" d="M1387.7,339.3v197.3L1074.1,458l-31.6-84c-11.3-30-44.8-45.2-74.8-33.9L459.2,531.3v-192
	c0-32.1,26-58.1,58.1-58.1h812.3C1361.7,281.2,1387.7,307.2,1387.7,339.3z"/>
<path class="st2" d="M1697.3,674l-151.9,606.4c-2.7,10.7-8.1,19.9-15.4,27.1V678.8c0-32.1-26-58.1-58.1-58.1h-336.6L1074.1,458
	l313.6,78.6l267.4,67C1686.2,611.4,1705.1,642.9,1697.3,674z"/>
<path class="st3" d="M1135.3,620.7H374.9c-32.1,0-58.1,26-58.1,58.1v474.8L149.9,709.7c-11.3-30,3.9-63.5,33.9-74.8l275.4-103.6
	l508.5-191.2c30-11.3,63.5,3.9,74.8,33.9l31.6,84L1135.3,620.7z"/>
<path class="st4" d="M1530,678.8v826.8c0,32.1-26,58.1-58.1,58.1h-1097c-32.1,0-58.1-26-58.1-58.1V678.8c0-32.1,26-58.1,58.1-58.1
	h1097C1504,620.7,1530,646.7,1530,678.8z"/>
<polygon class="st4" points="1082.2,1224.2 722.6,1224.2 866.3,1170.1 "/>
<path class="st5" d="M879.3,1086.3c0,16.5,1.7,33.6,0.2,49.5c-9.3,96.6-106,162.9-207.2,162.9c-117.7,0-213.1-95.4-213.1-213.1
	s95.4-213.1,213.1-213.1c56.6,0,108.1,22.1,146.2,58.1L758,993.9c-22.4-21-52.5-33.8-85.7-33.8c-69.3,0-125.4,56.2-125.4,125.4
	S603,1211,672.3,1211c52.3,0,97.1-32,115.9-77.4H672.3v-84.3h207C879.3,1062.1,879.3,1073.9,879.3,1086.3z"/>
<path class="st5" d="M1306.9,963.6H976v-91.2h330.9c14.8,0,26.8,12,26.8,26.8v37.7C1333.6,951.7,1321.7,963.6,1306.9,963.6z"/>
<path class="st5" d="M1306.9,1298.7H976v-91.2h330.9c14.8,0,26.8,12,26.8,26.8v37.7C1333.6,1286.7,1321.7,1298.7,1306.9,1298.7z"/>
<path class="st5" d="M1358,1131.1H976v-91.2h382c14.8,0,26.8,12,26.8,26.8v37.7C1384.8,1119.2,1372.8,1131.1,1358,1131.1z"/>
</svg>
