<?xml version="1.0" encoding="UTF-8" standalone="no"?>
<!-- Created with Inkscape (http://www.inkscape.org/) -->

<svg
   width="138.8325mm"
   height="135.63348mm"
   viewBox="0 0 138.83251 135.63348"
   version="1.1"
   id="svg5"
   xml:space="preserve"
   inkscape:export-filename="Github.png"
   inkscape:export-xdpi="96"
   inkscape:export-ydpi="96"
   inkscape:version="1.2.2 (b0a8486541, 2022-12-01)"
   sodipodi:docname="linkedin.svg"
   xmlns:inkscape="http://www.inkscape.org/namespaces/inkscape"
   xmlns:sodipodi="http://sodipodi.sourceforge.net/DTD/sodipodi-0.dtd"
   xmlns="http://www.w3.org/2000/svg"
   xmlns:svg="http://www.w3.org/2000/svg"><sodipodi:namedview
     id="namedview7"
     pagecolor="#ffffff"
     bordercolor="#000000"
     borderopacity="0.25"
     inkscape:showpageshadow="2"
     inkscape:pageopacity="0.0"
     inkscape:pagecheckerboard="0"
     inkscape:deskcolor="#d1d1d1"
     inkscape:document-units="mm"
     showgrid="false"
     inkscape:zoom="0.69578215"
     inkscape:cx="174.62362"
     inkscape:cy="411.0482"
     inkscape:window-width="1366"
     inkscape:window-height="768"
     inkscape:window-x="0"
     inkscape:window-y="0"
     inkscape:window-maximized="1"
     inkscape:current-layer="layer1" /><defs
     id="defs2" /><g
     inkscape:label="Layer 1"
     inkscape:groupmode="layer"
     id="layer1"><path
       style="fill:#e8c388;fill-opacity:1;stroke-width:1.09145"
       d="M 61.523942,133.94384 C 46.711783,132.00536 33.427486,125.44254 22.796195,114.81124 9.7671183,101.78217 3.5123254,86.557707 3.5123254,67.873376 3.5123254,49.18906 9.7671183,33.964594 22.796195,20.935525 35.82527,7.9064401 51.049738,1.6516519 69.73406,1.6516519 c 18.684321,0 33.9088,6.2547882 46.93787,19.2838731 21.13815,21.138133 25.46556,52.256545 11.08071,79.681255 -4.42295,8.43235 -16.83059,20.84365 -25.27516,25.2826 -12.624533,6.63619 -28.254595,9.70638 -40.953538,8.04446 z M 53.90808,72.239162 V 50.955956 h -7.094407 -7.094404 v 21.283206 21.283222 h 7.094404 7.094407 z m 20.737492,8.333056 c 0,-11.448692 0.262278,-13.283611 2.262107,-15.825985 2.883401,-3.665647 10.087753,-4.129031 11.888308,-0.764678 0.621409,1.161138 1.12985,8.282819 1.12985,15.825985 v 13.714844 h 7.211024 7.211039 l -0.39166,-16.644573 c -0.33603,-14.28002 -0.70578,-17.187237 -2.60277,-20.464619 -4.552456,-7.865181 -14.430692,-9.488777 -22.873264,-3.759494 -3.662023,2.48512 -3.834634,2.505482 -3.834634,0.452254 0,-1.918532 -0.76381,-2.149996 -7.094407,-2.149996 h -7.094404 v 21.283206 21.283222 h 7.094404 7.094407 z M 50.649254,45.70563 c 1.503443,-1.217418 2.440239,-3.182356 2.440239,-5.118423 0,-3.246486 -3.496415,-7.094397 -6.446346,-7.094397 -2.111005,0 -6.923878,4.931402 -6.923878,7.094397 0,2.162995 4.812873,7.094397 6.923878,7.094397 0.861226,0 2.663975,-0.889186 4.006107,-1.975974 z"
       id="path317" /></g></svg>
