<?xml version="1.0" encoding="utf-8"?>
<!-- Generator: Adobe Illustrator 17.0.0, SVG Export Plug-In . SVG Version: 6.00 Build 0)  -->
<!DOCTYPE svg PUBLIC "-//W3C//DTD SVG 1.1//EN" "http://www.w3.org/Graphics/SVG/1.1/DTD/svg11.dtd">
<svg version="1.1" id="Layer_1" xmlns="http://www.w3.org/2000/svg" xmlns:xlink="http://www.w3.org/1999/xlink" x="0px" y="0px"
	 width="100px" height="100px" viewBox="0 0 100 100" enable-background="new 0 0 100 100" xml:space="preserve">
<g>
	<path fill="#091E26" d="M50.187,90.766c-22.383,0-40.594-18.21-40.594-40.594c0-22.383,18.21-40.594,40.594-40.594
		c22.384,0,40.594,18.21,40.594,40.594C90.781,72.556,72.571,90.766,50.187,90.766z"/>
	<path fill="#26C9FF" d="M50.187,12.078c21.039,0,38.094,17.055,38.094,38.094S71.226,88.266,50.187,88.266
		S12.094,71.21,12.094,50.172S29.149,12.078,50.187,12.078 M50.187,7.078c-23.762,0-43.094,19.332-43.094,43.094
		s19.332,43.094,43.094,43.094s43.094-19.332,43.094-43.094S73.949,7.078,50.187,7.078L50.187,7.078z"/>
</g>
<text transform="matrix(1 0 0 1 27.707 63.4472)" fill="#FFFFFF" font-family="'MyriadPro-Bold'" font-size="45.2311">Ps</text>
</svg>
