<?xml version="1.0" encoding="UTF-8" standalone="no"?>
<svg
   width="64"
   height="64"
   version="1.1"
   id="svg43"
   sodipodi:docname="Syntax Highlighter.svg"
   xml:space="preserve"
   inkscape:version="1.2.1 (9c6d41e, 2022-07-14)"
   xmlns:inkscape="http://www.inkscape.org/namespaces/inkscape"
   xmlns:sodipodi="http://sodipodi.sourceforge.net/DTD/sodipodi-0.dtd"
   xmlns="http://www.w3.org/2000/svg"
   xmlns:svg="http://www.w3.org/2000/svg"><defs
     id="defs47" /><sodipodi:namedview
     id="namedview45"
     pagecolor="#ffffff"
     bordercolor="#000000"
     borderopacity="0.25"
     inkscape:showpageshadow="2"
     inkscape:pageopacity="0.0"
     inkscape:pagecheckerboard="0"
     inkscape:deskcolor="#d1d1d1"
     showgrid="false"
     inkscape:zoom="4.84375"
     inkscape:cx="-7.7419355"
     inkscape:cy="32"
     inkscape:window-width="1366"
     inkscape:window-height="748"
     inkscape:window-x="0"
     inkscape:window-y="0"
     inkscape:window-maximized="1"
     inkscape:current-layer="layer1" /><g
     inkscape:label="Layer 1"
     id="layer1"
     transform="matrix(3.7795276,0,0,3.7795276,8.316568,8.1314304)"><g
       id="g13070"
       transform="matrix(1.0843563,0,0,1.0843563,-24.777361,4.2295582)"
       style="fill:#ffffff"
       inkscape:label="g13070"><rect
         style="fill:#02d3b3;fill-opacity:1;stroke:none;stroke-width:0.576269"
         id="rect1705"
         width="13.235936"
         height="13.072879"
         x="22.010632"
         y="-4.6130242"
         ry="6.5364394" /><path
         id="path11722"
         style="fill:#ffffff;fill-opacity:1;stroke:none;stroke-width:0.640002;stroke-opacity:1"
         d="m 30.929378,0.03448922 c -0.002,1.9588e-4 -0.0037,6.428e-4 -0.0057,0.0010339 -0.002,3.9105e-4 -0.0042,9.6384e-4 -0.0062,0.0015501 -0.002,5.8693e-4 -0.0038,0.0012856 -0.0057,0.002067 -0.0019,7.821e-4 -0.0038,0.0016066 -0.0057,0.0025839 -0.0019,9.7727e-4 -0.0039,0.0019284 -0.0057,0.0031008 -0.0018,0.0011724 -0.0035,0.0027663 -0.0052,0.004134 l -0.358634,0.35863492 c -0.0014,0.001675 -0.003,0.003395 -0.0041,0.005167 -0.0012,0.001772 -0.0021,0.003831 -0.0031,0.005685 -9.77e-4,0.001854 -0.0018,0.003763 -0.0026,0.005684 -7.82e-4,0.001921 -0.0015,0.003712 -0.0021,0.005684 -5.86e-4,0.001974 -0.0012,0.004192 -0.0015,0.006202 -3.91e-4,0.00201 -8.39e-4,0.003652 -10e-4,0.005685 -1.95e-4,0.002032 0,0.004161 10e-7,0.006201 -10e-7,0.00204 -1.96e-4,0.004169 0,0.006202 1.95e-4,0.002032 6.42e-4,0.004191 0.001,0.006201 3.91e-4,0.00201 9.65e-4,0.003711 0.0016,0.005685 5.86e-4,0.001972 0.0013,0.00428 0.0021,0.006201 7.82e-4,0.001921 0.0016,0.003831 0.0026,0.005684 9.77e-4,0.001854 0.0019,0.003396 0.0031,0.005168 0.0012,0.001772 0.0028,0.003493 0.0041,0.005168 l 0.358634,0.35915114 c 8.38e-4,6.8381e-4 0.0017,0.00148 0.0026,0.002067 L 31.96138,1.9134467 c 0.01874,0.018747 0.01874,0.048949 0,0.067696 l -1.07487,1.0753864 -0.367936,0.367936 c -6.03e-4,7.39e-4 -0.0015,0.00182 -0.0021,0.00258 -5.59e-4,7.602e-4 -10e-4,0.00129 -0.0016,0.00207 -5.16e-4,7.8e-4 -0.0011,0.00178 -0.0015,0.00258 -4.73e-4,7.998e-4 -6.03e-4,0.00177 -10e-4,0.00258 -4.3e-4,8.167e-4 -0.0012,0.00123 -0.0016,0.00207 -3.87e-4,8.316e-4 -6.88e-4,0.00174 -0.001,0.00258 -3.45e-4,8.471e-4 -7.32e-4,0.00173 -0.001,0.00258 -3.01e-4,8.591e-4 -2.58e-4,0.00171 -5.17e-4,0.00258 -2.58e-4,8.691e-4 -8.18e-4,0.0017 -0.001,0.00258 -2.16e-4,8.789e-4 -3.44e-4,0.0017 -5.17e-4,0.00258 -1.73e-4,8.853e-4 -3.87e-4,0.00221 -5.17e-4,0.0031 -1.26e-4,8.889e-4 8.6e-5,0.00169 1e-6,0.00258 -8.7e-5,8.959e-4 -4.75e-4,0.00169 -5.18e-4,0.00258 -4.2e-5,8.981e-4 0,0.00168 0,0.00258 0,8.995e-4 -4.3e-5,0.00169 0,0.00258 4.4e-5,8.981e-4 4.32e-4,0.0022 5.17e-4,0.0031 8.6e-5,8.953e-4 -1.29e-4,0.00169 0,0.00258 1.3e-4,8.917e-4 3.45e-4,0.0017 5.17e-4,0.00258 1.72e-4,8.861e-4 3.01e-4,0.00171 5.17e-4,0.00258 2.15e-4,8.783e-4 7.75e-4,0.00171 0.001,0.00258 2.59e-4,8.698e-4 2.16e-4,0.00172 5.17e-4,0.00258 3.02e-4,8.585e-4 6.89e-4,0.00174 0.001,0.00258 3.46e-4,8.472e-4 6.46e-4,0.00175 0.001,0.00258 3.88e-4,8.33e-4 0.0011,0.00177 0.0016,0.00258 4.3e-4,8.168e-4 5.59e-4,0.00127 10e-4,0.00207 4.74e-4,7.991e-4 0.001,0.0018 0.0015,0.00258 5.17e-4,7.814e-4 9.9e-4,0.00131 0.0016,0.00207 5.6e-4,7.595e-4 0.0015,0.00184 0.0021,0.00258 l 0.367936,0.367936 c 7.38e-4,6.025e-4 0.0018,0.00151 0.0026,0.00207 7.6e-4,5.593e-4 0.0013,0.00103 0.0021,0.00155 7.8e-4,5.163e-4 0.0018,0.00108 0.0026,0.00155 8e-4,4.731e-4 0.0013,6.025e-4 0.0021,0.00103 8.18e-4,4.314e-4 0.0018,0.00116 0.0026,0.00155 8.32e-4,3.868e-4 0.0017,6.888e-4 0.0026,0.00103 8.47e-4,3.437e-4 0.0017,7.312e-4 0.0026,0.00103 8.59e-4,3.019e-4 0.0017,2.588e-4 0.0026,5.169e-4 8.7e-4,2.588e-4 0.0017,8.182e-4 0.0026,0.00103 8.78e-4,2.15e-4 0.0017,3.444e-4 0.0026,5.163e-4 8.86e-4,1.732e-4 0.0017,3.882e-4 0.0026,5.176e-4 8.92e-4,1.287e-4 0.0017,-8.63e-5 0.0026,-7e-7 8.96e-4,8.62e-5 0.0022,4.738e-4 0.0031,5.169e-4 8.99e-4,4.31e-5 0.0017,0 0.0026,0 8.99e-4,0 0.0017,4.31e-5 0.0026,0 8.99e-4,-4.31e-5 0.0017,-4.307e-4 0.0026,-5.169e-4 8.95e-4,-8.56e-5 0.0017,1.294e-4 0.0026,0 8.92e-4,-1.294e-4 0.0022,-3.437e-4 0.0031,-5.169e-4 8.86e-4,-1.719e-4 0.0017,-3.013e-4 0.0026,-5.163e-4 8.79e-4,-2.156e-4 0.0017,-7.75e-4 0.0026,-0.00103 8.7e-4,-2.581e-4 0.0017,-2.15e-4 0.0026,-5.169e-4 8.59e-4,-3.013e-4 0.0017,-6.888e-4 0.0026,-0.00103 8.47e-4,-3.45e-4 0.0018,-6.47e-4 0.0026,-0.00103 8.32e-4,-3.875e-4 0.0012,-0.00112 0.0021,-0.00155 8.18e-4,-4.299e-4 0.0018,-5.6e-4 0.0026,-0.00103 7.99e-4,-4.745e-4 0.0018,-0.00103 0.0026,-0.00155 7.82e-4,-5.169e-4 0.0013,-9.914e-4 0.0021,-0.00155 7.61e-4,-5.601e-4 0.0018,-0.00146 0.0026,-0.00207 l 0.367936,-0.367936 c 6.03e-4,-7.39e-4 0.0015,-0.00182 0.0021,-0.00258 5.6e-4,-7.609e-4 0.001,-0.00129 0.0015,-0.00207 l 1.511018,-1.5099848 c 0.01874,-0.018747 0.01874,-0.048949 0,-0.067696 L 31.337105,0.41017691 c -6.01e-4,-7.4815e-4 -0.0014,-0.001294 -0.0021,-0.002067 l -0.0047,-0.005168 -0.351916,-0.35191635 -0.0026,-0.002067 c -0.0017,-0.0013676 -0.0034,-0.0029615 -0.0052,-0.004134 -0.0018,-0.0011724 -0.0033,-0.0021236 -0.0052,-0.0031008 -0.0019,-9.7656e-4 -0.0038,-0.0018018 -0.0057,-0.0025832 -0.0019,-7.8211e-4 -0.0042,-0.0014815 -0.0062,-0.0020677 -0.002,-5.8622e-4 -0.0037,-0.0011597 -0.0057,-0.0015501 -0.002,-3.9105e-4 -0.0042,-8.3797e-4 -0.0062,-0.0010339 -0.002,-1.9517e-4 -0.0042,7.1e-7 -0.0062,0 -0.002,7.1e-7 -0.0042,-1.9517e-4 -0.0062,0 z" /><path
         id="path11728"
         style="fill:#ffffff;fill-opacity:1;stroke:none;stroke-width:0.640002;stroke-opacity:1"
         d="m 26.481816,0.03448922 c 0.002,1.9588e-4 0.0037,6.4279e-4 0.0057,0.0010338 0.002,3.9105e-4 0.0042,9.6384e-4 0.0062,0.0015501 0.002,5.8693e-4 0.0038,0.0012856 0.0057,0.002067 0.0019,7.821e-4 0.0038,0.0016066 0.0057,0.0025839 0.0019,9.7728e-4 0.0039,0.0019284 0.0057,0.0031008 0.0018,0.0011724 0.0035,0.0027663 0.0052,0.004134 l 0.358634,0.35863492 c 0.0014,0.001675 0.003,0.003395 0.0041,0.005167 0.0012,0.001772 0.0021,0.003831 0.0031,0.005685 9.77e-4,0.001854 0.0018,0.003763 0.0026,0.005684 7.82e-4,0.001921 0.0015,0.003712 0.0021,0.005684 5.86e-4,0.001974 0.0012,0.004192 0.0016,0.006202 3.91e-4,0.00201 8.39e-4,0.003652 0.001,0.005685 1.96e-4,0.002032 0,0.004161 0,0.006201 0,0.00204 1.96e-4,0.004169 0,0.006202 -1.95e-4,0.002032 -6.42e-4,0.004191 -0.001,0.006201 -3.91e-4,0.00201 -9.65e-4,0.003711 -0.0016,0.005685 -5.86e-4,0.001972 -0.0013,0.00428 -0.0021,0.006201 -7.82e-4,0.001921 -0.0016,0.003831 -0.0026,0.005684 -9.77e-4,0.001854 -0.0019,0.003396 -0.0031,0.005168 -0.0012,0.001772 -0.0028,0.003493 -0.0041,0.005168 l -0.358634,0.35915114 c -8.38e-4,6.8381e-4 -0.0017,0.00148 -0.0026,0.002067 L 25.449915,1.9134466 c -0.01874,0.018747 -0.01874,0.048949 0,0.067696 l 1.07487,1.0753864 0.367936,0.367936 c 6.03e-4,7.39e-4 0.0015,0.00182 0.0021,0.00258 5.59e-4,7.602e-4 0.001,0.00129 0.0015,0.00207 5.17e-4,7.8e-4 0.0011,0.00178 0.0016,0.00258 4.73e-4,7.998e-4 6.03e-4,0.00177 0.001,0.00258 4.3e-4,8.167e-4 0.0012,0.00123 0.0016,0.00207 3.87e-4,8.316e-4 6.88e-4,0.00174 10e-4,0.00258 3.45e-4,8.471e-4 7.32e-4,0.00173 0.001,0.00258 3.01e-4,8.591e-4 2.58e-4,0.00171 5.17e-4,0.00258 2.58e-4,8.69e-4 8.18e-4,0.0017 0.001,0.00258 2.16e-4,8.789e-4 3.44e-4,0.0017 5.17e-4,0.00258 1.72e-4,8.853e-4 3.87e-4,0.00221 5.17e-4,0.0031 1.26e-4,8.889e-4 -8.6e-5,0.00169 -1e-6,0.00258 8.7e-5,8.959e-4 4.75e-4,0.00169 5.18e-4,0.00258 4.2e-5,8.981e-4 0,0.00168 0,0.00258 0,8.995e-4 4.3e-5,0.00169 0,0.00258 -4.4e-5,8.981e-4 -4.32e-4,0.0022 -5.17e-4,0.0031 -8.6e-5,8.953e-4 1.29e-4,0.00169 0,0.00258 -1.3e-4,8.917e-4 -3.45e-4,0.0017 -5.17e-4,0.00258 -1.72e-4,8.861e-4 -3.01e-4,0.00171 -5.17e-4,0.00258 -2.15e-4,8.783e-4 -7.75e-4,0.00171 -0.001,0.00258 -2.59e-4,8.698e-4 -2.16e-4,0.00172 -5.17e-4,0.00258 -3.02e-4,8.585e-4 -6.89e-4,0.00174 -0.001,0.00258 -3.45e-4,8.472e-4 -6.45e-4,0.00175 -10e-4,0.00258 -3.88e-4,8.33e-4 -0.0011,0.00177 -0.0016,0.00258 -4.3e-4,8.168e-4 -5.59e-4,0.00127 -0.001,0.00207 -4.74e-4,7.991e-4 -0.001,0.0018 -0.0016,0.00258 -5.16e-4,7.814e-4 -9.89e-4,0.00131 -0.0015,0.00207 -5.6e-4,7.595e-4 -0.0015,0.00184 -0.0021,0.00258 l -0.367936,0.367936 c -7.38e-4,6.025e-4 -0.0018,0.00151 -0.0026,0.00207 -7.6e-4,5.593e-4 -0.0013,0.00103 -0.0021,0.00155 -7.8e-4,5.162e-4 -0.0018,0.00108 -0.0026,0.00155 -7.99e-4,4.731e-4 -0.0012,6.025e-4 -0.0021,0.00103 -8.18e-4,4.314e-4 -0.0018,0.00116 -0.0026,0.00155 -8.32e-4,3.868e-4 -0.0017,6.887e-4 -0.0026,0.00103 -8.47e-4,3.437e-4 -0.0017,7.312e-4 -0.0026,0.00103 -8.59e-4,3.019e-4 -0.0017,2.588e-4 -0.0026,5.169e-4 -8.7e-4,2.588e-4 -0.0017,8.182e-4 -0.0026,0.00103 -8.78e-4,2.15e-4 -0.0017,3.444e-4 -0.0026,5.162e-4 -8.86e-4,1.733e-4 -0.0017,3.883e-4 -0.0026,5.177e-4 -8.92e-4,1.287e-4 -0.0017,-8.63e-5 -0.0026,-7e-7 -8.96e-4,8.62e-5 -0.0022,4.738e-4 -0.0031,5.169e-4 -8.99e-4,4.31e-5 -0.0017,0 -0.0026,0 -8.99e-4,0 -0.0017,4.31e-5 -0.0026,0 -8.99e-4,-4.31e-5 -0.0017,-4.307e-4 -0.0026,-5.169e-4 -8.95e-4,-8.56e-5 -0.0017,1.294e-4 -0.0026,0 -8.92e-4,-1.294e-4 -0.0022,-3.437e-4 -0.0031,-5.17e-4 -8.86e-4,-1.718e-4 -0.0017,-3.012e-4 -0.0026,-5.162e-4 -8.79e-4,-2.156e-4 -0.0017,-7.75e-4 -0.0026,-0.00103 -8.7e-4,-2.581e-4 -0.0017,-2.15e-4 -0.0026,-5.169e-4 -8.59e-4,-3.013e-4 -0.0017,-6.888e-4 -0.0026,-0.00103 -8.47e-4,-3.451e-4 -0.0018,-6.47e-4 -0.0026,-0.00103 -8.33e-4,-3.875e-4 -0.0012,-0.00112 -0.0021,-0.00155 -8.18e-4,-4.299e-4 -0.0018,-5.6e-4 -0.0026,-0.00103 -7.99e-4,-4.745e-4 -0.0018,-0.00103 -0.0026,-0.00155 -7.82e-4,-5.169e-4 -0.0013,-9.914e-4 -0.0021,-0.00155 -7.61e-4,-5.601e-4 -0.0018,-0.00146 -0.0026,-0.00207 L 26.085049,3.495705 c -6.03e-4,-7.39e-4 -0.0015,-0.00182 -0.0021,-0.00258 -5.6e-4,-7.609e-4 -10e-4,-0.00129 -0.0015,-0.00207 L 24.570822,1.9811409 c -0.01874,-0.018747 -0.01874,-0.048949 0,-0.067696 l 1.503267,-1.50326799 c 6.01e-4,-7.4816e-4 0.0014,-0.001294 0.0021,-0.002067 l 0.0047,-0.005168 0.351916,-0.35191635 0.0026,-0.002067 c 0.0017,-0.0013676 0.0034,-0.0029615 0.0052,-0.004134 0.0018,-0.0011724 0.0033,-0.0021235 0.0052,-0.0031008 0.0019,-9.7656e-4 0.0038,-0.0018018 0.0057,-0.0025832 0.0019,-7.821e-4 0.0042,-0.0014815 0.0062,-0.0020677 0.002,-5.8622e-4 0.0037,-0.0011597 0.0057,-0.0015501 0.002,-3.9105e-4 0.0042,-8.3796e-4 0.0062,-0.0010338 0.002,-1.9517e-4 0.0042,7.1e-7 0.0062,0 0.002,7.1e-7 0.0042,-1.9517e-4 0.0062,0 z" /><rect
         style="fill:#ffffff;fill-opacity:1;stroke:none;stroke-width:0.640001;stroke-opacity:1"
         id="rect13065"
         width="0.62799782"
         height="4.8192148"
         x="28.05792"
         y="-7.1921124"
         ry="0.077466816"
         transform="rotate(13.465181)" /></g></g></svg>
